<?xml version="1.0" encoding="UTF-8" standalone="no"?><!DOCTYPE svg PUBLIC "-//W3C//DTD SVG 1.1//EN" "http://www.w3.org/Graphics/SVG/1.1/DTD/svg11.dtd"><svg width="100%" height="100%" viewBox="0 0 181 35" version="1.1" xmlns="http://www.w3.org/2000/svg" xmlns:xlink="http://www.w3.org/1999/xlink" xml:space="preserve" xmlns:serif="http://www.serif.com/" style="fill-rule:evenodd;clip-rule:evenodd;stroke-linejoin:round;stroke-miterlimit:1.41421;"><path d="M-0.06,3l0,26.6l4.14,0l0,-26.6l-4.14,0Zm4.29,0l2.59,26.6l1.4,0l-2.58,-26.6l-1.41,0Zm6.73,0l-2.58,26.6l1.4,0l2.59,-26.6l-1.41,0Zm1.56,0l0,26.6l4.18,0l0,-26.6l-4.18,0Zm15.69,0l0,20.48c0,3.57 3.23,6.35 6.69,6.35c3.46,0 6.69,-2.78 6.69,-6.35l0,-20.48l-4.18,0l0,20.33c0,1.44 -1.29,2.47 -2.51,2.47c-1.22,0 -2.51,-1.03 -2.51,-2.47l0,-20.33l-4.18,0Zm26.26,0l0,26.6l4.18,0l0,-26.6l-4.18,0Zm4.33,0l3.95,26.6l1.45,0l-3.95,-26.6l-1.45,0Zm5.55,0l0,26.6l4.18,0l0,-26.6l-4.18,0Zm18.05,25.12l0,1.48l11.36,0l0,-1.48l-3.61,0l0,-23.64l3.61,0l0,-1.48l-11.36,0l0,1.48l3.57,0l0,23.64l-3.57,0Z" style="fill:#0000dc;fill-rule:nonzero;"/><path d="M113.44,11.8l0,-8.79l-2.21,0l0,10.68l7.24,0l0,-1.89l-5.03,0Zm8.31,-6.99l0,-1.8l-2.11,0l0,1.8l2.11,0Zm0,8.88l0,-7.62l-2.11,0l0,7.62l2.11,0Zm4.14,-6.71l0,-3.97l-2.11,0l0,10.68l2.05,0l0,-1.01l0.03,0c0.46,0.78 1.3,1.2 2.18,1.2c1.93,0 3.17,-1.57 3.17,-4c0,-2.43 -1.23,-4.01 -3.14,-4.01c-0.87,0 -1.69,0.39 -2.15,1.11l-0.03,0Zm1.48,0.5c1.01,0 1.65,0.94 1.65,2.4c0,1.45 -0.64,2.4 -1.65,2.4c-0.95,0 -1.59,-0.89 -1.59,-2.4c0,-1.52 0.64,-2.4 1.59,-2.4Zm9.44,-1.53c-0.9,0 -1.58,0.37 -2.09,1.2l-0.03,0l0,-1.08l-1.93,0l0,7.62l2.1,0l0,-3.6c0,-1.5 0.69,-2.31 1.98,-2.31c0.21,0 0.42,0.03 0.66,0.07l0,-1.81c-0.21,-0.06 -0.48,-0.09 -0.69,-0.09Zm4.54,-0.12c-2.17,0 -3.22,1.17 -3.3,2.62l2.04,0c0.03,-0.72 0.48,-1.15 1.26,-1.15c0.74,0 1.24,0.39 1.24,1.35l0,0.27c-0.47,0.03 -1.33,0.12 -1.9,0.21c-2.21,0.34 -2.96,1.18 -2.96,2.43c0,1.32 0.98,2.31 2.6,2.31c1.05,0 1.9,-0.39 2.48,-1.2l0.03,0c0,0.37 0.03,0.7 0.1,1.02l1.89,0c-0.14,-0.51 -0.21,-1.13 -0.21,-2.09l0,-2.76c0,-1.99 -1.11,-3.01 -3.27,-3.01Zm1.24,4.65c0,0.69 -0.07,1.09 -0.43,1.45c-0.3,0.3 -0.76,0.44 -1.2,0.44c-0.74,0 -1.12,-0.39 -1.12,-0.96c0,-0.62 0.35,-0.9 1.22,-1.05c0.45,-0.08 1.09,-0.14 1.53,-0.17l0,0.29Zm8.03,-4.53c-0.9,0 -1.57,0.37 -2.08,1.2l-0.03,0l0,-1.08l-1.94,0l0,7.62l2.1,0l0,-3.6c0,-1.5 0.69,-2.31 1.98,-2.31c0.21,0 0.42,0.03 0.66,0.07l0,-1.81c-0.21,-0.06 -0.48,-0.09 -0.69,-0.09Zm8.47,0.12l-2.15,0l-0.83,2.55c-0.34,1.05 -0.63,2.13 -0.89,3.19l-0.03,0c-0.23,-1.06 -0.52,-2.14 -0.83,-3.19l-0.78,-2.55l-2.25,0l2.16,6.19c0.29,0.86 0.35,1.1 0.35,1.38c0,0.75 -0.55,1.23 -1.39,1.23c-0.31,0 -0.6,-0.04 -0.81,-0.12l0,1.68c0.32,0.08 0.72,0.12 1.1,0.12c1.9,0 2.86,-0.67 3.63,-2.82l2.72,-7.66Z" style="fill:#0000dc;fill-rule:nonzero;"/><path d="M115.44,20.77c-3.02,0 -4.88,2.13 -4.88,5.58c0,3.46 1.84,5.58 4.84,5.58c2.61,0 4.3,-1.46 4.51,-3.99l-2.26,0c-0.17,1.3 -0.99,2.04 -2.25,2.04c-1.59,0 -2.57,-1.37 -2.57,-3.63c0,-2.25 1,-3.63 2.61,-3.63c1.25,0 2.08,0.75 2.21,1.99l2.22,0c-0.1,-2.32 -1.79,-3.94 -4.43,-3.94Zm9.08,3.06c-2.18,0 -3.22,1.17 -3.3,2.62l2.04,0c0.03,-0.72 0.48,-1.15 1.26,-1.15c0.73,0 1.25,0.39 1.25,1.35l0,0.27c-0.49,0.03 -1.34,0.12 -1.91,0.21c-2.2,0.34 -2.95,1.18 -2.95,2.43c0,1.32 0.97,2.31 2.59,2.31c1.05,0 1.91,-0.39 2.47,-1.2l0.03,0c0,0.37 0.03,0.7 0.11,1.02l1.89,0c-0.14,-0.51 -0.21,-1.13 -0.21,-2.09l0,-2.76c0,-1.99 -1.11,-3.01 -3.27,-3.01Zm1.25,4.65c0,0.69 -0.08,1.09 -0.44,1.45c-0.3,0.3 -0.77,0.44 -1.2,0.44c-0.74,0 -1.13,-0.39 -1.13,-0.96c0,-0.62 0.36,-0.9 1.23,-1.05c0.46,-0.08 1.08,-0.14 1.54,-0.17l0,0.29Zm7.24,1.63c-0.72,0 -0.99,-0.33 -0.99,-1.17l0,-3.31l1.45,0l0,-1.56l-1.45,0l0,-1.98l-2.1,0l0,1.98l-1.23,0l0,1.56l1.23,0l0,3.69c0,1.77 0.77,2.47 2.52,2.47c0.36,0 0.82,-0.06 1.11,-0.15l0,-1.6c-0.14,0.04 -0.35,0.07 -0.54,0.07Zm4.92,-6.28c-2.18,0 -3.23,1.17 -3.3,2.62l2.04,0c0.03,-0.72 0.48,-1.15 1.26,-1.15c0.73,0 1.24,0.39 1.24,1.35l0,0.27c-0.48,0.03 -1.33,0.12 -1.9,0.21c-2.21,0.34 -2.96,1.18 -2.96,2.43c0,1.32 0.98,2.31 2.6,2.31c1.05,0 1.9,-0.39 2.47,-1.2l0.03,0c0,0.37 0.03,0.7 0.11,1.02l1.89,0c-0.14,-0.51 -0.21,-1.13 -0.21,-2.09l0,-2.76c0,-1.99 -1.11,-3.01 -3.27,-3.01Zm1.24,4.65c0,0.69 -0.07,1.09 -0.43,1.45c-0.3,0.3 -0.77,0.44 -1.2,0.44c-0.74,0 -1.13,-0.39 -1.13,-0.96c0,-0.62 0.36,-0.9 1.23,-1.05c0.45,-0.08 1.08,-0.14 1.53,-0.17l0,0.29Zm6.08,3.21l0,-10.68l-2.1,0l0,10.68l2.1,0Zm5.44,-7.86c-2.38,0 -3.9,1.57 -3.9,4.05c0,2.47 1.52,4.05 3.9,4.05c2.39,0 3.9,-1.58 3.9,-4.05c0,-2.48 -1.51,-4.05 -3.9,-4.05Zm0,1.62c1.04,0 1.7,0.94 1.7,2.43c0,1.48 -0.66,2.43 -1.7,2.43c-1.03,0 -1.69,-0.95 -1.69,-2.43c0,-1.49 0.66,-2.43 1.69,-2.43Zm8.25,-1.59c-1.92,0 -3.15,1.5 -3.15,3.87c0,2.37 1.22,3.87 3.12,3.87c0.92,0 1.56,-0.35 2.13,-1.14l0.03,0l0,0.67c0,1.49 -0.58,1.97 -1.53,1.97c-0.79,0 -1.27,-0.35 -1.32,-0.93l-2.1,0c0.12,1.5 1.28,2.43 3.38,2.43c2.19,0 3.61,-1.08 3.61,-3.39l0,-7.14l-1.98,0l0,1.02l-0.03,0c-0.58,-0.87 -1.23,-1.23 -2.16,-1.23Zm0.57,1.72c0.99,0 1.62,0.86 1.62,2.15c0,1.29 -0.63,2.14 -1.62,2.14c-0.93,0 -1.53,-0.82 -1.53,-2.14c0,-1.32 0.6,-2.15 1.53,-2.15Zm8.37,6.29c0.98,0 1.75,-0.47 2.24,-1.14l0.03,0l0,0.96l1.96,0l0,-7.62l-2.1,0l0,4.08c0,1.38 -0.63,2.07 -1.5,2.07c-0.82,0 -1.33,-0.53 -1.33,-1.68l0,-4.47l-2.1,0l0,4.68c0,2.07 1.09,3.12 2.8,3.12Zm9.57,-1.43c-0.9,0 -1.66,-0.55 -1.72,-2.13l5.47,0c0,-0.84 -0.07,-1.42 -0.23,-1.95c-0.49,-1.54 -1.78,-2.53 -3.53,-2.53c-2.39,0 -3.78,1.74 -3.78,3.99c0,2.43 1.39,4.11 3.79,4.11c2.03,0 3.35,-1.16 3.65,-2.55l-2.15,0c-0.1,0.61 -0.66,1.06 -1.5,1.06Zm-0.01,-5.13c0.84,0 1.53,0.53 1.66,1.68l-3.33,0c0.17,-1.15 0.81,-1.68 1.67,-1.68Z" style="fill:#0000dc;fill-rule:nonzero;"/></svg>