<?xml version="1.0" encoding="UTF-8" standalone="no"?><!DOCTYPE svg PUBLIC "-//W3C//DTD SVG 1.1//EN" "http://www.w3.org/Graphics/SVG/1.1/DTD/svg11.dtd"><svg width="100%" height="100%" viewBox="0 0 172 35" version="1.1" xmlns="http://www.w3.org/2000/svg" xmlns:xlink="http://www.w3.org/1999/xlink" xml:space="preserve" xmlns:serif="http://www.serif.com/" style="fill-rule:evenodd;clip-rule:evenodd;stroke-linejoin:round;stroke-miterlimit:1.41421;"><path d="M-0.06,3l0,26.6l4.14,0l0,-26.6l-4.14,0Zm4.29,0l2.59,26.6l1.4,0l-2.58,-26.6l-1.41,0Zm6.73,0l-2.58,26.6l1.4,0l2.59,-26.6l-1.41,0Zm1.56,0l0,26.6l4.18,0l0,-26.6l-4.18,0Zm15.69,0l0,20.48c0,3.57 3.23,6.35 6.69,6.35c3.46,0 6.69,-2.78 6.69,-6.35l0,-20.48l-4.18,0l0,20.33c0,1.44 -1.29,2.47 -2.51,2.47c-1.22,0 -2.51,-1.03 -2.51,-2.47l0,-20.33l-4.18,0Zm26.26,0l0,26.6l4.18,0l0,-26.6l-4.18,0Zm4.33,0l3.95,26.6l1.45,0l-3.95,-26.6l-1.45,0Zm5.55,0l0,26.6l4.18,0l0,-26.6l-4.18,0Zm18.05,25.12l0,1.48l11.36,0l0,-1.48l-3.61,0l0,-23.64l3.61,0l0,-1.48l-11.36,0l0,1.48l3.57,0l0,23.64l-3.57,0Z" style="fill:#0000dc;fill-rule:nonzero;"/><path d="M115.47,8.08l4.07,-5.07l-2.58,0l-3.49,4.69l-0.03,0l0,-4.69l-2.21,0l0,10.68l2.21,0l0,-5.04l0.03,0l3.61,5.04l2.81,0l-4.42,-5.61Zm9.42,-2.19c-0.97,0 -1.73,0.46 -2.23,1.14l-0.03,0l0,-0.96l-1.97,0l0,7.62l2.11,0l0,-4.08c0,-1.38 0.62,-2.07 1.5,-2.07c0.82,0 1.33,0.52 1.33,1.68l0,4.47l2.1,0l0,-4.68c0,-2.07 -1.1,-3.12 -2.81,-3.12Zm6.87,-1.08l0,-1.8l-2.1,0l0,1.8l2.1,0Zm0,8.88l0,-7.62l-2.1,0l0,7.62l2.1,0Zm4.14,-6.78l0,-3.9l-2.1,0l0,10.68l2.1,0l0,-4.08c0,-1.4 0.63,-2.07 1.5,-2.07c0.83,0 1.34,0.52 1.34,1.68l0,4.47l2.1,0l0,-4.68c0,-2.07 -1.1,-3.12 -2.81,-3.12c-0.81,0 -1.56,0.33 -2.1,1.02l-0.03,0Zm10.31,-1.08c-2.39,0 -3.9,1.57 -3.9,4.05c0,2.47 1.51,4.05 3.9,4.05c2.38,0 3.9,-1.58 3.9,-4.05c0,-2.48 -1.52,-4.05 -3.9,-4.05Zm0,1.62c1.03,0 1.69,0.94 1.69,2.43c0,1.48 -0.66,2.43 -1.69,2.43c-1.04,0 -1.7,-0.95 -1.7,-2.43c0,-1.49 0.66,-2.43 1.7,-2.43Zm9.52,6.24l2.57,-7.62l-2.19,0l-0.89,3c-0.31,1.08 -0.6,2.19 -0.84,3.3l-0.03,0c-0.24,-1.11 -0.52,-2.22 -0.84,-3.3l-0.88,-3l-2.19,0l2.56,7.62l2.73,0Zm7.71,-7.8c-0.97,0 -1.74,0.46 -2.23,1.14l-0.03,0l0,-0.96l-1.97,0l0,7.62l2.1,0l0,-4.08c0,-1.38 0.63,-2.07 1.5,-2.07c0.83,0 1.34,0.52 1.34,1.68l0,4.47l2.1,0l0,-4.68c0,-2.07 -1.1,-3.12 -2.81,-3.12Zm6.2,-0.69l2.1,-2.19l-2.6,0l-1.15,2.19l1.65,0Zm0.67,8.49l0,-7.62l-2.1,0l0,7.62l2.1,0Z" style="fill:#0000dc;fill-rule:nonzero;"/><path d="M118.3,31.69l-3.22,-4.11l2.9,-3.51l-2.37,0l-2.46,3.07l-0.03,0l0,-6.13l-2.1,0l0,10.68l2.1,0l0,-3.57l0.03,0l2.55,3.57l2.6,0Zm3.65,-7.86c-2.17,0 -3.22,1.17 -3.29,2.62l2.04,0c0.03,-0.72 0.47,-1.15 1.25,-1.15c0.74,0 1.25,0.39 1.25,1.35l0,0.27c-0.48,0.03 -1.33,0.12 -1.9,0.21c-2.21,0.34 -2.96,1.18 -2.96,2.43c0,1.32 0.97,2.31 2.6,2.31c1.04,0 1.9,-0.39 2.47,-1.2l0.03,0c0,0.37 0.03,0.7 0.11,1.02l1.89,0c-0.14,-0.51 -0.21,-1.13 -0.21,-2.09l0,-2.76c0,-1.99 -1.11,-3.01 -3.28,-3.01Zm1.25,4.65c0,0.69 -0.07,1.09 -0.43,1.45c-0.3,0.3 -0.77,0.44 -1.21,0.44c-0.73,0 -1.12,-0.39 -1.12,-0.96c0,-0.62 0.36,-0.9 1.23,-1.05c0.45,-0.08 1.08,-0.14 1.53,-0.17l0,0.29Zm7.24,1.63c-0.72,0 -0.99,-0.33 -0.99,-1.17l0,-3.31l1.46,0l0,-1.56l-1.46,0l0,-1.98l-2.1,0l0,1.98l-1.22,0l0,1.56l1.22,0l0,3.69c0,1.77 0.77,2.47 2.53,2.47c0.35,0 0.82,-0.06 1.1,-0.15l0,-1.6c-0.13,0.04 -0.34,0.07 -0.54,0.07Zm4.92,-6.28c-2.17,0 -3.22,1.17 -3.3,2.62l2.04,0c0.03,-0.72 0.48,-1.15 1.26,-1.15c0.74,0 1.25,0.39 1.25,1.35l0,0.27c-0.48,0.03 -1.34,0.12 -1.91,0.21c-2.2,0.34 -2.95,1.18 -2.95,2.43c0,1.32 0.97,2.31 2.59,2.31c1.05,0 1.91,-0.39 2.48,-1.2l0.03,0c0,0.37 0.03,0.7 0.1,1.02l1.89,0c-0.13,-0.51 -0.21,-1.13 -0.21,-2.09l0,-2.76c0,-1.99 -1.11,-3.01 -3.27,-3.01Zm1.25,4.65c0,0.69 -0.08,1.09 -0.44,1.45c-0.3,0.3 -0.76,0.44 -1.2,0.44c-0.73,0 -1.12,-0.39 -1.12,-0.96c0,-0.62 0.36,-0.9 1.23,-1.05c0.45,-0.08 1.08,-0.14 1.53,-0.17l0,0.29Zm6.08,3.21l0,-10.68l-2.1,0l0,10.68l2.1,0Zm5.44,-7.86c-2.39,0 -3.9,1.57 -3.9,4.05c0,2.47 1.51,4.05 3.9,4.05c2.38,0 3.9,-1.58 3.9,-4.05c0,-2.48 -1.52,-4.05 -3.9,-4.05Zm0,1.62c1.03,0 1.69,0.94 1.69,2.43c0,1.48 -0.66,2.43 -1.69,2.43c-1.04,0 -1.7,-0.95 -1.7,-2.43c0,-1.49 0.66,-2.43 1.7,-2.43Zm8.25,-1.59c-1.92,0 -3.15,1.5 -3.15,3.87c0,2.37 1.21,3.87 3.12,3.87c0.91,0 1.56,-0.35 2.13,-1.14l0.03,0l0,0.67c0,1.49 -0.59,1.97 -1.53,1.97c-0.8,0 -1.28,-0.35 -1.32,-0.93l-2.1,0c0.12,1.5 1.27,2.43 3.37,2.43c2.19,0 3.62,-1.08 3.62,-3.39l0,-7.14l-1.98,0l0,1.02l-0.03,0c-0.59,-0.87 -1.23,-1.23 -2.16,-1.23Zm0.57,1.72c0.99,0 1.62,0.86 1.62,2.15c0,1.29 -0.63,2.14 -1.62,2.14c-0.93,0 -1.53,-0.82 -1.53,-2.14c0,-1.32 0.6,-2.15 1.53,-2.15Z" style="fill:#0000dc;fill-rule:nonzero;"/></svg>